# xmcd CD database file
#
# Track frame offsets:
#	150
#	20200
#	36117
#	63307
#	85995
#	111360
#	134385
#	154955
#	174880
#	191817
#	206787
#	228340
#
# Disc length: 3637 seconds
#
# Revision: 3
# Processed by: cddbd v1.5.2PL0 Copyright (c) Steve Scherf et al.
# Submitted via: CDex 1.51
#
DISCID=a90e330c
DTITLE=Muddy Waters - Blues Sky
DYEAR=1992
DGENRE=Blues
TTITLE0=Jealous Hearted Man
TTITLE1=I Can't Be Satisfied
TTITLE2=Crosseyed Cat
TTITLE3=Who Do You Trust
TTITLE4=Mamie
TTITLE5=Screamin' And Cryin'
TTITLE6=Too Young To Know
TTITLE7=Forever Lonely
TTITLE8=I Feel Like Going Home
TTITLE9=(My Eyes) Keep Me In Trouble
TTITLE10=Streamline Woman (Live)
TTITLE11=Deep Down In Florida (Live)
EXTD=YEAR: 1992
EXTT0=
EXTT1=
EXTT2=
EXTT3=
EXTT4=
EXTT5=
EXTT6=
EXTT7=
EXTT8=
EXTT9=
EXTT10=
EXTT11=
PLAYORDER=
